<svg width="14" height="14" viewBox="0 0 14 14" fill="none" xmlns="http://www.w3.org/2000/svg">
<rect width="14" height="14" rx="2" fill="#0046B4"/>
<path fill-rule="evenodd" clip-rule="evenodd" d="M9.56759 4.61399L9.96977 4.95146C10.192 5.13772 10.2209 5.46887 10.0346 5.69099C10.0345 5.69102 10.0345 5.69106 10.0344 5.691L6.52318 9.87315C6.33667 10.0951 6.0056 10.124 5.78344 9.93777L4.97909 9.26285L8.82785 4.67861C9.01436 4.45668 9.34543 4.42776 9.56759 4.61399Z" fill="white"/>
<path fill-rule="evenodd" clip-rule="evenodd" d="M3.63254 7.38914L3.9848 6.99792C4.17575 6.78585 4.50114 6.76515 4.71743 6.95131L7.18684 9.07672L6.51498 9.88514C6.32965 10.1081 5.99865 10.1387 5.77566 9.95334C5.77291 9.95106 5.77018 9.94874 5.76748 9.9464L3.67896 8.13726C3.4598 7.94742 3.43603 7.61586 3.62587 7.3967C3.62807 7.39416 3.6303 7.39164 3.63254 7.38914Z" fill="white"/>
</svg>
