<svg width="64" height="64" viewBox="0 0 64 64" fill="none" xmlns="http://www.w3.org/2000/svg">
<rect width="64" height="64" fill="#F8F9FB"/>
<path d="M11.2338 30.0488H8.92969L10.5927 34.6484H12.8969L11.2338 30.0488Z" fill="#D5DAE1"/>
<path d="M34.2125 22.5751C40.0994 22.5751 45.3689 24.9018 48.9078 28.5696H49.2321C45.4979 24.3195 39.6561 21.582 33.088 21.582C22.1845 21.582 13.2785 29.1219 12.7012 38.614H14.954C15.53 29.6716 23.9314 22.5751 34.2125 22.5751Z" fill="#D5DAE1"/>
<path d="M21.8295 30.0488H19.6631V38.6155H21.8295V30.0488Z" fill="#D5DAE1"/>
<path d="M53.5795 33.5312H46.3828V35.1304H53.5795V33.5312Z" fill="#D5DAE1"/>
<path d="M54.5551 36.6367H46.3828V38.6165H54.5551V36.6367Z" fill="#D5DAE1"/>
<path d="M55.0697 30.0488H46.3828V32.0274H54.1756L55.0697 30.0488Z" fill="#D5DAE1"/>
<path d="M37.4223 30.0488H35.2559V38.6155H37.4223V30.0488Z" fill="#D5DAE1"/>
<path d="M44.3246 30.0488H42.1582V38.6155H44.3246V30.0488Z" fill="#D5DAE1"/>
<path d="M41.0251 33.0977H38.5557V35.5671H41.0251V33.0977Z" fill="#D5DAE1"/>
<path d="M27.5355 30.0488H25.7886H23.8877V38.6143H26.0541V30.6537L29.5504 38.6143H31.2986H33.1983V30.0488H31.0318V38.0094L27.5355 30.0488Z" fill="#D5DAE1"/>
</svg>
