<svg width="60" height="60" viewBox="0 0 60 60" fill="none" xmlns="http://www.w3.org/2000/svg">
<g clip-path="url(#clip0_938_19452)">
<rect x="0.5" y="0.5" width="59" height="59" rx="29.5" fill="#EBF0F9" stroke="white"/>
<path d="M30 29C34.135 29 37.5 25.6363 37.5 21.5C37.5 17.3637 34.135 14 30 14C25.865 14 22.5 17.365 22.5 21.5C22.5 25.635 25.865 29 30 29ZM16.25 39.9213V40.5375C16.25 43.5312 21.0213 44 26.945 44H33.055C38.7463 44 43.75 43.5312 43.75 40.5375V39.9213C43.75 34.195 39.3825 30.25 33.5362 30.25H26.4625C20.6163 30.25 16.25 34.1938 16.25 39.9213Z" fill="#B3C8E9"/>
</g>
<defs>
<clipPath id="clip0_938_19452">
<rect width="60" height="60" fill="white"/>
</clipPath>
</defs>
</svg>
