<svg width="128" height="128" viewBox="0 0 128 128" fill="none" xmlns="http://www.w3.org/2000/svg">
<g id="&#230;&#154;&#130;&#230;&#151;&#160;">
<mask id="mask0_1646_25910" style="mask-type:alpha" maskUnits="userSpaceOnUse" x="0" y="0" width="128" height="128">
<rect id="Rectangle 346241305" width="128" height="128" fill="white"/>
</mask>
<g mask="url(#mask0_1646_25910)">
<path id="Vector 566" d="M21.3335 107.594H40.8118" stroke="#C9CDD4" stroke-width="1.2" stroke-linecap="round"/>
<path id="Vector 570" d="M91.5 97.3911L104.811 97.3911" stroke="#C9CDD4" stroke-width="1.2" stroke-linecap="round"/>
<path id="Vector 569" d="M16.6958 107.594H12.9857" stroke="#C9CDD4" stroke-width="1.2" stroke-linecap="round"/>
<path id="Vector 571" d="M81.623 117.797H70.4926" stroke="#C9CDD4" stroke-width="1.2" stroke-linecap="round"/>
<path id="Rectangle 346241281" d="M47.3042 34.3188L111.304 42.6578L81 55L47.3042 50.5V34.3188Z" stroke="#C9CDD4" stroke-width="1.2" stroke-linecap="round" stroke-linejoin="round"/>
<path id="Vector 620" d="M86.7248 28.29L90.9917 25.0434" stroke="#C9CDD4" stroke-width="1.2" stroke-linecap="round"/>
<path id="Vector 621" d="M83.0144 26.435L84.4058 21.3337" stroke="#C9CDD4" stroke-width="1.2" stroke-linecap="round"/>
<path id="Vector 622" d="M78.6132 26.4436L77.165 21.3334" stroke="#C9CDD4" stroke-width="1.2" stroke-linecap="round"/>
<path id="Rectangle 346241286" d="M47.3044 34.3188L18 47" stroke="#C9CDD4" stroke-width="1.2" stroke-linecap="round" stroke-linejoin="round"/>
<path id="Rectangle 346241285" d="M18.5508 62V92.7331L81.6232 101.102V55.6729" stroke="#C9CDD4" stroke-width="1.2" stroke-linecap="round" stroke-linejoin="round"/>
<path id="Rectangle 346241284" d="M18 47L81.6232 54.86L73.2597 68.6375L9.5 60.5L18 47Z" stroke="#C9CDD4" stroke-width="1.2" stroke-linecap="round" stroke-linejoin="round"/>
<path id="Rectangle 346241282" d="M111.304 58.5V89.6001L81.623 101.102V55.0957" stroke="#C9CDD4" stroke-width="1.2" stroke-linecap="round" stroke-linejoin="round"/>
<path id="Rectangle 346241283" d="M111.304 42.6665L81.623 55.1882L91.8259 67.2462L120.58 54.2607L111.304 42.6665Z" stroke="#C9CDD4" stroke-width="1.2" stroke-linecap="round" stroke-linejoin="round"/>
</g>
</g>
</svg>
