<svg width="339" height="105" viewBox="0 0 339 105" fill="none" xmlns="http://www.w3.org/2000/svg">
<mask id="mask0_5741_49638" style="mask-type:alpha" maskUnits="userSpaceOnUse" x="0" y="0" width="339" height="105">
<rect width="339" height="105" rx="6" fill="url(#paint0_linear_5741_49638)"/>
</mask>
<g mask="url(#mask0_5741_49638)">
<rect width="339" height="105" rx="6" fill="#F4F8FF"/>
<path opacity="0.8" d="M266.75 0H339.75V105.5H188L266.75 0Z" fill="url(#paint1_linear_5741_49638)"/>
<g opacity="0.9" filter="url(#filter0_f_5741_49638)">
<circle cx="320" cy="30" r="27" fill="#9AC5FF"/>
</g>
<path d="M340 48.25V105.5H244.75L340 48.25Z" fill="url(#paint2_linear_5741_49638)"/>
<path d="M340 36.25V73L244.75 105.5L340 36.25Z" fill="url(#paint3_linear_5741_49638)"/>
<path d="M249.5 27C249.5 24.7909 251.291 23 253.5 23H314.5C316.709 23 318.5 24.7909 318.5 27V105H249.5V27Z" fill="url(#paint4_linear_5741_49638)"/>
<path opacity="0.4" d="M254.5 31.5H311V105H254.5V31.5Z" fill="url(#paint5_linear_5741_49638)"/>
<path d="M256.5 29.5H312V105H256.5V29.5Z" fill="url(#paint6_linear_5741_49638)"/>
<path d="M264 38C264 37.4477 264.448 37 265 37H279C279.552 37 280 37.4477 280 38C280 38.5523 279.552 39 279 39H265C264.448 39 264 38.5523 264 38Z" fill="url(#paint7_linear_5741_49638)"/>
<path d="M264 44.5C264 43.9477 264.448 43.5 265 43.5H288.5C289.052 43.5 289.5 43.9477 289.5 44.5C289.5 45.0523 289.052 45.5 288.5 45.5H265C264.448 45.5 264 45.0523 264 44.5Z" fill="url(#paint8_linear_5741_49638)"/>
<circle cx="300" cy="41.5" r="6.5" fill="url(#paint9_linear_5741_49638)"/>
<rect x="297" y="41.5" width="6" height="3.5" rx="1.75" fill="#F4F9FF"/>
<circle cx="300" cy="39.5" r="1.5" fill="white"/>
<path d="M244 50H289.5C296.127 50 301.5 55.3726 301.5 62V105H244V50Z" fill="url(#paint10_linear_5741_49638)"/>
<path d="M280 97C280 96.4477 280.448 96 281 96H292.5C293.052 96 293.5 96.4477 293.5 97V98C293.5 98.5523 293.052 99 292.5 99H281C280.448 99 280 98.5523 280 98V97Z" fill="url(#paint11_linear_5741_49638)"/>
</g>
<defs>
<filter id="filter0_f_5741_49638" x="242" y="-48" width="156" height="156" filterUnits="userSpaceOnUse" color-interpolation-filters="sRGB">
<feFlood flood-opacity="0" result="BackgroundImageFix"/>
<feBlend mode="normal" in="SourceGraphic" in2="BackgroundImageFix" result="shape"/>
<feGaussianBlur stdDeviation="25.5" result="effect1_foregroundBlur_5741_49638"/>
</filter>
<linearGradient id="paint0_linear_5741_49638" x1="176" y1="6.33984e-08" x2="178" y2="105" gradientUnits="userSpaceOnUse">
<stop stop-color="#EAF3FF"/>
<stop offset="1" stop-color="#FAFCFF"/>
</linearGradient>
<linearGradient id="paint1_linear_5741_49638" x1="193.058" y1="98.25" x2="323.137" y2="27.398" gradientUnits="userSpaceOnUse">
<stop stop-color="#E8F2FF"/>
<stop offset="1" stop-color="#F4F9FF" stop-opacity="0"/>
</linearGradient>
<linearGradient id="paint2_linear_5741_49638" x1="337.25" y1="102" x2="307.427" y2="68.0777" gradientUnits="userSpaceOnUse">
<stop stop-color="#C5DDFF"/>
<stop offset="1" stop-color="#F6FAFF" stop-opacity="0"/>
</linearGradient>
<linearGradient id="paint3_linear_5741_49638" x1="340" y1="74.75" x2="315.121" y2="51.4365" gradientUnits="userSpaceOnUse">
<stop stop-color="#D1E4FF"/>
<stop offset="1" stop-color="#F6FAFF" stop-opacity="0.56"/>
</linearGradient>
<linearGradient id="paint4_linear_5741_49638" x1="284" y1="23" x2="284" y2="105" gradientUnits="userSpaceOnUse">
<stop stop-color="#D9E9FF"/>
<stop offset="1" stop-color="#ECF4FE"/>
</linearGradient>
<linearGradient id="paint5_linear_5741_49638" x1="282.75" y1="31.5" x2="282.75" y2="105" gradientUnits="userSpaceOnUse">
<stop stop-color="#F4F9FE"/>
<stop offset="1" stop-color="#ECF4FE"/>
</linearGradient>
<linearGradient id="paint6_linear_5741_49638" x1="284.25" y1="29.5" x2="284.25" y2="105" gradientUnits="userSpaceOnUse">
<stop stop-color="#F7FCFF"/>
<stop offset="1" stop-color="#ECF4FE"/>
</linearGradient>
<linearGradient id="paint7_linear_5741_49638" x1="268.75" y1="37" x2="275.547" y2="41.1416" gradientUnits="userSpaceOnUse">
<stop stop-color="#D8E7FC"/>
<stop offset="1" stop-color="#E6F1FF"/>
</linearGradient>
<linearGradient id="paint8_linear_5741_49638" x1="273.25" y1="43.5" x2="282.642" y2="44.8326" gradientUnits="userSpaceOnUse">
<stop stop-color="#D8E7FC"/>
<stop offset="1" stop-color="#E6F1FF"/>
</linearGradient>
<linearGradient id="paint9_linear_5741_49638" x1="300" y1="35" x2="300" y2="48" gradientUnits="userSpaceOnUse">
<stop stop-color="#D8E7FC"/>
<stop offset="1" stop-color="#E2EFFF"/>
</linearGradient>
<linearGradient id="paint10_linear_5741_49638" x1="272.75" y1="50" x2="272.75" y2="105" gradientUnits="userSpaceOnUse">
<stop stop-color="#B9D6FF"/>
<stop offset="1" stop-color="#E6F0FF"/>
</linearGradient>
<linearGradient id="paint11_linear_5741_49638" x1="284.05" y1="96" x2="289.663" y2="98.526" gradientUnits="userSpaceOnUse">
<stop stop-color="#BEDCFF"/>
<stop offset="1" stop-color="#BBDAFF"/>
</linearGradient>
</defs>
</svg>
