<svg width="16" height="16" viewBox="0 0 16 16" fill="none" xmlns="http://www.w3.org/2000/svg">
<g id="Frame">
<path id="Vector" d="M4.6665 4.33325V2.99992C4.6665 2.63173 4.96497 2.33325 5.33317 2.33325H13.9998C14.368 2.33325 14.6665 2.63173 14.6665 2.99992V8.99992C14.6665 9.36812 14.368 9.66659 13.9998 9.66659H13.3332" stroke="#121A26"/>
<path id="Vector_2" d="M10.6668 6.33325H2.00016C1.63197 6.33325 1.3335 6.63173 1.3335 6.99992V12.9999C1.3335 13.3681 1.63197 13.6666 2.00016 13.6666H10.6668C11.035 13.6666 11.3335 13.3681 11.3335 12.9999V6.99992C11.3335 6.63173 11.035 6.33325 10.6668 6.33325Z" stroke="#121A26"/>
<path id="Vector_3" d="M1.3335 9.33325H11.3335" stroke="#121A26"/>
<path id="Vector_4" d="M11.3335 7.66675V11.6667" stroke="#121A26"/>
<path id="Vector_5" d="M1.3335 7.66675V11.6667" stroke="#121A26"/>
<path id="Vector_6" d="M3.6665 11.3333H6.33317" stroke="#121A26"/>
<path id="Vector_7" d="M8.3335 11.3333H9.00016" stroke="#121A26"/>
</g>
</svg>
