<svg width="14" height="14" viewBox="0 0 14 14" fill="none" xmlns="http://www.w3.org/2000/svg">
<g id="&#230;&#184;&#169;&#233;&#166;&#168;&#230;&#143;&#144;&#231;&#164;&#186;">
<path id="&#232;&#183;&#175;&#229;&#190;&#132;" fill-rule="evenodd" clip-rule="evenodd" d="M7 0C10.866 0 14 3.13401 14 7C14 10.866 10.866 14 7 14C3.13401 14 0 10.866 0 7C0 3.13401 3.13401 0 7 0Z" fill="#0046B4"/>
<g id="Group 3284">
<path id="Subtract" fill-rule="evenodd" clip-rule="evenodd" d="M9.5 6.5C9.5 5.11929 8.38072 4 7 4C5.61929 4 4.5 5.11929 4.5 6.5C4.5 7.31791 4.89278 8.04408 5.5 8.50019V9.25391L8.5 9.25391V8.50019C9.10722 8.04409 9.5 7.31792 9.5 6.5ZM8.5 9.74765H5.5V10.0474C5.5 10.2974 5.70263 10.5 5.9526 10.5H8.0474C8.29737 10.5 8.5 10.2974 8.5 10.0474V9.74765ZM8.03761 5.46178C7.88055 5.30472 7.68337 5.21241 7.50421 5.2123C7.38733 5.21224 7.291 5.11705 7.28903 4.9997C7.28707 4.88234 7.38022 4.78727 7.49709 4.78733C7.81459 4.78752 8.11575 4.94535 8.3337 5.16329C8.55166 5.38126 8.71016 5.6831 8.71229 6.00209C8.71307 6.11944 8.61895 6.21355 8.50206 6.21229C8.38518 6.21104 8.28979 6.11489 8.28901 5.99755C8.2878 5.81683 8.19464 5.61881 8.03761 5.46178Z" fill="white"/>
</g>
</g>
</svg>
