<svg width="21" height="21" viewBox="0 0 21 21" fill="none" xmlns="http://www.w3.org/2000/svg">
<path d="M3.5 4.54386L10.5033 2.5L17.5 4.54386V8.73533C17.5 13.1409 14.6806 17.052 10.501 18.4446C6.32026 17.052 3.5 13.14 3.5 8.73338V4.54386Z" stroke="#121A26" stroke-width="1.3" stroke-linejoin="round"/>
<path d="M9.85 14C9.85 14.359 10.141 14.65 10.5 14.65C10.859 14.65 11.15 14.359 11.15 14H9.85ZM11.15 14V11H9.85V14H11.15Z" fill="#121A26"/>
<path d="M8.65 9C8.65 7.97827 9.47827 7.15 10.5 7.15C11.5217 7.15 12.35 7.97827 12.35 9C12.35 10.0217 11.5217 10.85 10.5 10.85C9.47827 10.85 8.65 10.0217 8.65 9Z" stroke="#121A26" stroke-width="1.3" stroke-linejoin="round"/>
</svg>
