<svg width="21" height="21" viewBox="0 0 21 21" fill="none" xmlns="http://www.w3.org/2000/svg">
<g id="wode_tuijian">
<path id="Rectangle 346240927" d="M7.2 17.25C6.73836 17.25 6.3143 16.9956 6.09706 16.5882L3.16373 11.0882C2.96765 10.7206 2.96765 10.2794 3.16373 9.91177L6.09706 4.41176C6.3143 4.00444 6.73836 3.75 7.2 3.75L13.8 3.75C14.2616 3.75 14.6857 4.00443 14.9029 4.41176L17.8363 9.91176C18.0324 10.2794 18.0324 10.7206 17.8363 11.0882L14.9029 16.5882C14.6857 16.9956 14.2616 17.25 13.8 17.25L7.2 17.25Z" stroke="#252525" stroke-width="1.5" stroke-linejoin="round"/>
<path id="Rectangle 346240928" d="M8.25 10.5C8.25 9.25736 9.25736 8.25 10.5 8.25C11.7426 8.25 12.75 9.25736 12.75 10.5C12.75 11.7426 11.7426 12.75 10.5 12.75C9.25736 12.75 8.25 11.7426 8.25 10.5Z" stroke="#252525" stroke-width="1.5" stroke-linejoin="round"/>
</g>
</svg>
